<?xml version="1.0" encoding="UTF-8"?>
<!-- Generator: Adobe Illustrator 14.0.0, SVG Export Plug-In . SVG Version: 6.00 Build 43363)  -->
<!DOCTYPE svg PUBLIC "-//W3C//DTD SVG 1.1//EN" "http://www.w3.org/Graphics/SVG/1.1/DTD/svg11.dtd">
<svg version="1.1" id="Ebene_1" xmlns="http://www.w3.org/2000/svg" xmlns:xlink="http://www.w3.org/1999/xlink" x="0px" y="0px" width="200px" height="480px" viewBox="0 0 200 480" enable-background="new 0 0 200 480" xml:space="preserve">
<path fill="#FFDD00" d="M37.71,323.292c-14.559,15.861-23.46,36.995-23.46,60.165c0,49.107,39.954,89.056,89.062,89.056  c49.099,0,89.053-39.948,89.053-89.056c0-43.299-31.078-79.491-72.106-87.432l-9.397,28.189  c29.38,3.717,52.171,28.878,52.171,59.242c0,32.937-26.792,59.734-59.72,59.734c-32.937,0-59.735-26.798-59.735-59.734  c0-14.989,5.557-28.714,14.724-39.215"/>
<path fill="none" stroke="#000000" stroke-width="3" d="M37.71,323.292c-14.559,15.861-23.46,36.995-23.46,60.165  c0,49.107,39.954,89.056,89.062,89.056c49.099,0,89.053-39.948,89.053-89.056c0-43.299-31.078-79.491-72.106-87.432l-9.397,28.189  c29.38,3.717,52.171,28.878,52.171,59.242c0,32.937-26.792,59.734-59.72,59.734c-32.937,0-59.735-26.798-59.735-59.734  c0-14.989,5.557-28.714,14.724-39.215"/>
<path d="M27.708,350.539l-1.833,5.455c-1.732,5.115-1.049,9.527,4.564,11.424c5.791,1.954,8.661-1.145,10.418-6.359l1.846-5.456  L27.708,350.539 M38.393,358.6l-0.525,1.549c-0.979,2.92-3.116,4.134-6.113,3.123c-2.984-1.006-3.958-3.206-2.946-6.189l0.519-1.543  L38.393,358.6z"/>
<polyline points="37.899,370.889 36.673,381.965 33.695,381.636 34.46,374.739 31.211,374.385 30.497,380.896 27.519,380.574   28.24,374.05 24.681,373.658 23.884,380.802 20.913,380.473 22.171,369.138 37.899,370.889 "/>
<path d="M28.063,398.01c-4.317,0.411-6.524-2.206-6.916-6.31c-0.379-4.109,1.296-7.1,5.601-7.504l9.774-0.917l0.404,4.191  l-9.078,0.854c-2.08,0.202-3.78,0.936-3.578,3.079c0.202,2.143,2.01,2.541,4.09,2.339l9.072-0.854l0.398,4.204L28.063,398.01"/>
<polyline points="36.06,401.821 34.941,398.086 37.938,397.188 41.389,408.7 38.393,409.598 37.273,405.861 25.117,409.509   23.896,405.47 36.06,401.821 "/>
<path d="M31.009,414.579c-0.025,1.232,0.259,2.794,1.049,4.355c0.613,1.195,1.429,2.194,2.561,1.619  c2.624-1.334-2.434-7.163,2.693-9.774c3.401-1.731,6.012,1.106,7.466,3.933c0.683,1.353,1.157,2.788,1.328,3.907l-3.041,1.232  c-0.051-1.188-0.398-2.384-0.948-3.458c-0.487-0.948-1.366-2.479-2.604-1.858c-2.276,1.169,2.655,7.055-2.434,9.653  c-3.647,1.858-6.214-0.702-7.808-3.838c-0.67-1.314-1.302-3.047-1.53-4.507L31.009,414.579"/>
<path d="M43.406,440.113c-0.98-0.746-2.074-1.6-3.414-3.281c-2.617-3.313-3.958-8.452,0.746-12.17  c4.318-3.413,8.863-2.086,12.094,2.004c0.993,1.265,1.682,2.726,2.263,4.198l-2.901,1.853c-0.253-1.53-0.784-2.788-1.675-3.933  c-1.859-2.346-4.779-2.528-7.087-0.701c-2.44,1.928-2.561,4.816-0.651,7.238c0.873,1.087,2.023,1.96,3.098,2.585L43.406,440.113"/>
<polyline points="55.885,430.839 59.141,433.52 55.285,438.191 59.135,441.371 62.984,436.699 66.234,439.386 56.169,451.594   52.92,448.907 57.232,443.666 53.382,440.499 49.07,445.733 45.814,443.047 55.885,430.839 "/>
<polyline points="67.467,440.063 77.348,445.266 75.944,447.908 69.806,444.671 68.282,447.561 74.073,450.62 72.682,453.269   66.892,450.209 65.223,453.383 71.576,456.733 70.185,459.382 60.096,454.065 67.467,440.063 "/>
<path d="M80.863,459.338c0.442,0.366,1.062,0.645,1.764,0.81c1.214,0.284,2.295-0.373,2.883-2.89l2.055-8.863l4.115,0.961  l-2.352,10.096c-0.765,3.307-2.649,5.272-6.815,4.306c-0.91-0.215-1.783-0.677-2.446-1.012L80.863,459.338"/>
<path d="M106.485,460.337c-0.209,4.317-3.117,6.132-7.239,5.936c-4.122-0.195-6.84-2.288-6.625-6.605l0.48-9.818l4.21,0.215  l-0.442,9.104c-0.101,2.086,0.373,3.875,2.529,3.982c2.156,0.102,2.807-1.637,2.908-3.717l0.442-9.109l4.204,0.202L106.485,460.337"/>
<path d="M125.296,462.992c-2.51,1.15-4.463,1.549-5.892,1.814c-4.147,0.765-9.322-0.456-10.396-6.348  c-1.081-5.866,2.636-8.876,8.342-9.912c1.023-0.196,3.211-0.475,4.829-0.171l0.285,3.445c-1.436-0.519-2.99-0.487-3.977-0.304  c-3.363,0.613-5.873,2.529-5.203,6.151c0.557,3.066,3.06,4.514,6.088,3.957c0.563-0.095,1.081-0.284,1.429-0.53l-0.563-3.073  l-2.428,0.437l-0.543-2.939l6.441-1.188L125.296,462.992"/>
<polyline points="123.785,447.308 134.083,443.002 135.228,445.759 128.823,448.438 130.088,451.448 136.138,448.926   137.295,451.676 131.251,454.217 132.623,457.518 139.261,454.742 140.411,457.505 129.898,461.904 123.785,447.308 "/>
<polyline points="135.392,442.483 139.785,439.405 150.33,445.139 150.368,445.113 144.147,436.339 147.309,434.139   156.387,447.093 152.101,450.102 141.366,444.412 141.321,444.443 147.631,453.225 144.451,455.443 135.392,442.483 "/>
<path d="M160.224,443.666l3.806-4.33c3.566-4.04,4.641-8.39,0.203-12.29c-4.597-4.046-8.446-2.289-12.081,1.853l-3.806,4.317  L160.224,443.666 M153.485,432.116l1.074-1.233c2.036-2.301,4.476-2.61,6.84-0.53c2.371,2.086,2.415,4.494,0.342,6.865l-1.081,1.22  L153.485,432.116z"/>
<polyline points="158.662,420.907 163.891,411.703 166.495,413.176 163.347,418.72 166.369,420.439 169.378,415.136   171.977,416.608 168.967,421.912 174.499,425.073 172.419,428.728 158.662,420.907 "/>
<polyline points="164.2,411.026 167.873,400.487 170.699,401.48 168.404,408.029 171.496,409.11 173.664,402.922 176.483,403.908   174.321,410.097 177.697,411.272 180.068,404.489 182.9,405.482 179.133,416.248 164.2,411.026 "/>
<path fill="#E2001A" d="M62.757,358.239c0,0-68.339-35.005-52.503-115.842c0,0,10.836,51.675,23.334,43.336  c12.505-8.332,2.503-33.335-12.498-79.168c-15.002-45.84-30.376-70.21,58.332-141.673c30.003-24.162,35.835-54.172,35.835-54.172  s16.196,53.502-29.166,106.668c-8.939,10.482,3.332,25.844,15.002,8.345c0,0,14.164-19.167,17.495-39.17  c0,0,14.168,26.666-17.495,103.337c-12.707,30.75,12.224,31.666,27.035,12.707c0.607-0.784,33.202-42.306,27.962-107.718  c0,0,40.004,69.167-7.909,149.259c-44.831,74.958-20.426,74.086-20.426,74.086L62.757,358.239z"/>
<path fill="none" stroke="#000000" stroke-width="3" stroke-miterlimit="7" d="M62.757,358.239c0,0-68.339-35.005-52.503-115.842  c0,0,10.836,51.675,23.334,43.336c12.505-8.332,2.503-33.335-12.498-79.168c-15.002-45.84-30.376-70.21,58.332-141.673  c30.003-24.162,35.835-54.172,35.835-54.172s16.196,53.502-29.166,106.668c-8.939,10.482,3.332,25.844,15.002,8.345  c0,0,14.164-19.167,17.495-39.17c0,0,14.168,26.666-17.495,103.337c-12.707,30.75,12.224,31.666,27.035,12.707  c0.607-0.784,33.202-42.306,27.962-107.718c0,0,40.004,69.167-7.909,149.259c-44.831,74.958-20.426,74.086-20.426,74.086  L62.757,358.239z"/>
<path fill="#FFDD00" d="M87.962,228.274l6.72-0.101c29.331,0,52.823,22.746,52.956,53.243v124.895l-96.551,0.019v-95.94H33.613  l0.013-5.152c5.658-6.771,9.59-11.676,15.021-19.363c0.209-15.065,5.557-26.533,15.128-34.271  c7.643-5.936,16.266-8.629,24.188-9.368V228.274z"/>
<path fill="none" stroke="#000000" stroke-width="3" d="M87.962,228.274l6.72-0.101c29.331,0,52.823,22.746,52.956,53.243v124.895  l-96.551,0.019v-95.94H33.613l0.013-5.152c5.658-6.771,9.59-11.676,15.021-19.363c0.209-15.065,5.557-26.533,15.128-34.271  c7.643-5.936,16.266-8.629,24.188-9.368V228.274z"/>
<path fill="#E2001A" d="M88.184,293.086l-0.083,108.047l-31.666,0.177l0.025-92.811c8.876-0.14,11.91-7.638,17.783-15.274  L88.184,293.086"/>
<path fill="#004B9A" d="M125.858,283.749c0-19.75-16.099-35.82-35.842-35.82c-19.755,0-35.75,16.02-35.75,35.77  c0,0-0.291,2.333-0.101,4.026l-13.333,17.398l15.432,0.025c1.555,0,3.003-0.557,3.464-0.715c4.191-1.447,8.686-8.503,12.783-14.9  h19.25l0.05,111.6h34.046V283.749"/>
<path fill="#FFDD00" d="M91.528,277.022c-2.7,0-4.887,2.181-4.887,4.887c0,2.692,2.187,4.88,4.887,4.88  c2.699,0,4.88-2.188,4.88-4.88C96.408,279.203,94.227,277.022,91.528,277.022"/>
<rect x="58.97" y="277.458" fill="#FFDD00" width="2.662" height="9.167"/>
<rect x="65.709" y="277.458" fill="#FFDD00" width="2.661" height="9.167"/>
<rect x="72.442" y="277.458" fill="#FFDD00" width="2.662" height="9.167"/>
<rect x="79.181" y="277.458" fill="#FFDD00" width="2.662" height="9.167"/>
<path fill="#FFDD00" d="M67.258,332.016h2.421c4.666,0,7.289-2.687,7.289-7.877s-2.718-7.877-7.289-7.877h-2.421V332.016   M61.012,311.109h8.541c8.162,0,13.871,2.845,13.871,12.916c0,9.741-5.879,13.143-13.871,13.143h-8.541V311.109z"/>
<polyline fill="#FFDD00" points="65.551,341.669 82.98,341.669 82.98,346.601 72.499,346.601 72.499,352.309 82.538,352.309   82.538,357.233 72.499,357.233 72.499,367.728 65.551,367.728 65.551,341.669 "/>
<polyline fill="#FFDD00" points="59.35,372.109 66.733,372.109 72.524,392.566 72.594,392.566 78.422,372.109 85.547,372.109   76.665,398.168 68.074,398.168 59.35,372.109 "/>
<path fill="#FFDD00" d="M192.364,383.457c0-43.299-31.078-79.491-72.106-87.432l-9.397,28.189  c29.38,3.717,52.171,28.878,52.171,59.242"/>
<path fill="none" stroke="#000000" stroke-width="3" d="M192.364,383.457c0-43.299-31.078-79.491-72.106-87.432l-9.397,28.189  c29.38,3.717,52.171,28.878,52.171,59.242"/>
<path d="M179.803,386.883c4.299,0.563,5.867,3.598,5.336,7.694s-2.819,6.625-7.119,6.068l-9.735-1.264l0.544-4.179l9.034,1.169  c2.073,0.272,3.906-0.063,4.179-2.2c0.278-2.137-1.41-2.927-3.471-3.198l-9.047-1.17l0.55-4.185L179.803,386.883"/>
<polyline points="169.966,384.285 169.125,373.158 172.109,372.931 172.634,379.854 175.89,379.606 175.391,373.076   178.374,372.843 178.867,379.379 182.445,379.107 181.901,371.944 184.886,371.717 185.752,383.09 169.966,384.285 "/>
<path d="M184.203,367.627l-1.132-4.071l-6.031,1.694l-0.24-0.854c-0.424-1.505,0.095-2.219,2.479-3.774l2.51-1.644l-1.188-4.229  l-3.736,2.643c-1.638,1.277-2.77,1.688-2.757,3.092l-0.037,0.019c-1.012-1.84-2.637-2.421-4.666-1.853  c-2.617,0.733-3.23,3.275-2.466,5.98l2.023,7.252L184.203,367.627 M170.712,367.014l-0.304-1.068  c-0.43-1.549-0.568-3.041,0.848-3.433c1.732-0.487,2.237,1.156,2.604,2.465l0.297,1.068L170.712,367.014z"/>
<polyline points="166.122,359.446 163.903,355.742 173.304,347.77 173.278,347.732 161.754,352.126 159.01,347.529 168.31,339.394   168.291,339.362 156.791,343.813 154.256,340.848 170.093,335.215 172.874,339.874 163.581,348.022 163.6,348.067 175.112,343.629   177.912,348.326 166.122,359.446 "/>
<path d="M138.604,309.264l-3.933-1.511l-2.25,5.841l-0.822-0.315c-1.467-0.563-1.732-1.397-1.555-4.242l0.183-2.997l-4.109-1.58  l-0.107,4.577c0.051,2.086-0.297,3.236,0.841,4.064l-0.013,0.045c-2.079-0.291-3.515,0.663-4.267,2.63  c-0.98,2.547,0.708,4.545,3.331,5.563l7.024,2.693L138.604,309.264 M130.057,319.727l-1.031-0.398  c-1.498-0.582-2.775-1.365-2.25-2.731c0.639-1.675,2.263-1.1,3.533-0.606l1.037,0.398L130.057,319.727z"/>
<polyline points="154.256,340.848 146.373,332.958 148.49,330.84 153.384,335.752 155.704,333.444 151.076,328.811 153.194,326.693   157.821,331.333 160.351,328.798 155.274,323.715 157.398,321.598 165.452,329.671 154.256,340.848 "/>
<polyline points="145.361,331.978 141.84,329.664 145.165,324.606 140.993,321.863 137.668,326.921 134.146,324.606   142.846,311.381 146.373,313.701 142.643,319.366 146.809,322.109 150.539,316.445 154.066,318.759 145.361,331.978 "/>
</svg>